<?xml version="1.0" encoding="UTF-8"?>
<svg version="1.1" xmlns="http://www.w3.org/2000/svg" width="302" height="222">
<path d="M0 0 C99.66 0 199.32 0 302 0 C302 73.26 302 146.52 302 222 C202.34 222 102.68 222 0 222 C0 148.74 0 75.48 0 0 Z " fill="#FCFEFD" transform="translate(0,0)"/>
<path d="M0 0 C57.75 0 115.5 0 175 0 C175 7.92 175 15.84 175 24 C170.71 24 166.42 24 162 24 C162 41.49 162 58.98 162 77 C159.69 77 157.38 77 155 77 C154.92523438 77.7528125 154.85046875 78.505625 154.7734375 79.28125 C152.28497768 99.38410192 143.37614894 115.66978583 128 129 C109.14715311 143.22856369 90.0171509 145.71071093 67 144 C61.64773697 143.16481615 56.86564015 141.36420207 52 139 C50.52273437 138.31357422 50.52273437 138.31357422 49.015625 137.61328125 C30.20860248 128.13184034 17.63404597 112.17563877 10.93359375 92.42578125 C9.62748647 87.63307797 9.11126077 82.95616177 9 78 C6.03 78 3.06 78 0 78 C0 52.26 0 26.52 0 0 Z " fill="#FCFEFC" transform="translate(69,0)"/>
<path d="M0 0 C29.25 2.25 29.25 2.25 39 4 C39.99 9.61 40.98 15.22 42 21 C38.18875725 22.91920062 34.37606579 24.83542523 30.5625 26.75 C29.49322266 27.28882812 28.42394531 27.82765625 27.32226562 28.3828125 C21.27846902 31.41395208 15.21401908 34.33358478 9 37 C9.31638428 38.02105835 9.31638428 38.02105835 9.63916016 39.06274414 C11.37480674 44.66414901 12.7704874 50.26832479 14 56 C14.58265625 55.80889648 15.1653125 55.61779297 15.765625 55.42089844 C27.7537488 51.50496649 39.70814267 47.83522784 52 45 C53.29454565 46.91472333 54.58552944 48.83185518 55.875 50.75 C56.59429687 51.81734375 57.31359375 52.8846875 58.0546875 53.984375 C59.54507257 56.29477114 60.85199401 58.51063964 62 61 C61.14277344 61.845625 60.28554688 62.69125 59.40234375 63.5625 C53.87892205 69.03424812 48.40601942 74.48138138 43.3671875 80.41015625 C41.67616069 82.37657886 39.87038091 84.20443433 38 86 C39.41680244 90.32046898 41.53763785 93.00461199 44.625 96.3125 C45.85089844 97.63701172 45.85089844 97.63701172 47.1015625 98.98828125 C47.72804687 99.65214844 48.35453125 100.31601563 49 101 C52.46720948 99.4328538 55.29492364 97.37054942 58.3125 95.0625 C63.25917785 91.30816106 68.23796439 87.6041589 73.25 83.9375 C74.25220581 83.20382202 74.25220581 83.20382202 75.2746582 82.45532227 C76.84936052 81.30298548 78.42461745 80.15140665 80 79 C83.85620964 81.18752256 87.6884016 83.38214838 91.4375 85.75 C92.11683594 86.17796875 92.79617187 86.6059375 93.49609375 87.046875 C94.24052734 87.51867187 94.24052734 87.51867187 95 88 C94.2696922 92.32007945 92.93642838 96.3642341 91.49609375 100.48828125 C91.2533522 101.19147995 91.01061066 101.89467865 90.76051331 102.6191864 C89.98920292 104.8513521 89.21342234 107.0819338 88.4375 109.3125 C87.91181288 110.83127761 87.38641906 112.35015678 86.86132812 113.86914062 C85.57761156 117.58061144 84.28988531 121.29066879 83 125 C83.85851562 125.27585937 84.71703125 125.55171875 85.6015625 125.8359375 C88.92578037 126.97457764 92.13854627 128.25849731 95.375 129.625 C96.43460937 130.07101563 97.49421875 130.51703125 98.5859375 130.9765625 C99.78089844 131.48316406 99.78089844 131.48316406 101 132 C101.43868408 131.17798096 101.87736816 130.35596191 102.3293457 129.5090332 C103.96651047 126.44273161 105.60482048 123.37704766 107.24389648 120.31176758 C107.95138385 118.98811804 108.65842157 117.66422806 109.36499023 116.34008789 C110.38405479 114.43050885 111.40476419 112.52181688 112.42578125 110.61328125 C113.03848877 109.46641846 113.65119629 108.31955566 114.2824707 107.13793945 C115.79154573 104.38084759 117.35996729 101.68069603 119 99 C121.60466582 99.47657292 124.20871714 99.95614719 126.8125 100.4375 C127.91948242 100.63956055 127.91948242 100.63956055 129.04882812 100.84570312 C132.11315076 101.41419737 135.03928953 102.01309651 138 103 C138.43025831 107.4654557 138.85741084 111.93119454 139.28173828 116.3972168 C139.42640069 117.91520125 139.57189861 119.43310632 139.71826172 120.95092773 C139.92897856 123.13765251 140.13664936 125.32464889 140.34375 127.51171875 C140.40937134 128.18587326 140.47499268 128.86002777 140.54260254 129.55461121 C140.87267684 133.07332837 141 136.4535448 141 140 C147.6 140 154.2 140 161 140 C161.07347656 137.75316406 161.07347656 137.75316406 161.1484375 135.4609375 C161.54315643 124.51546369 162.07203901 113.80032518 164 103 C166.04111542 102.51849058 168.08291932 102.03989917 170.125 101.5625 C171.26195312 101.29566406 172.39890625 101.02882813 173.5703125 100.75390625 C176.70461304 100.0649313 179.83017726 99.49618806 183 99 C199 129.2148368 199 129.2148368 199 132 C200.19238281 131.566875 201.38476562 131.13375 202.61328125 130.6875 C204.1795982 130.12475139 205.74600939 129.56226502 207.3125 129 C208.09818359 128.71382812 208.88386719 128.42765625 209.69335938 128.1328125 C210.8293457 127.72675781 210.8293457 127.72675781 211.98828125 127.3125 C212.68477783 127.06113281 213.38127441 126.80976563 214.09887695 126.55078125 C216 126 216 126 219 126 C218.77860352 125.33581055 218.55720703 124.67162109 218.32910156 123.98730469 C213.140625 108.421875 213.140625 108.421875 212.08007812 105.23242188 C211.34018693 103.01810011 210.59376379 100.80595325 209.84179688 98.59570312 C209.47634766 97.51740234 209.11089844 96.43910156 208.734375 95.328125 C208.40147461 94.35262695 208.06857422 93.37712891 207.72558594 92.37207031 C207 90 207 90 207 88 C209.23046875 86.34375 209.23046875 86.34375 212.1875 84.5 C213.15042969 83.8915625 214.11335937 83.283125 215.10546875 82.65625 C217.69626696 81.17379596 220.20182169 80.02309993 223 79 C223.82242188 79.70125 224.64484375 80.4025 225.4921875 81.125 C233.50805579 87.94373229 241.5522257 94.71684814 250 101 C253.90285767 99.41332422 256.33520982 96.86649519 259.25 93.875 C260.58804688 92.50988281 260.58804688 92.50988281 261.953125 91.1171875 C262.62859375 90.41851562 263.3040625 89.71984375 264 89 C262.38385601 85.07641343 259.68662896 82.28616039 256.8125 79.25 C255.81836082 78.18289648 254.82487172 77.11518696 253.83203125 76.046875 C253.1062085 75.26860352 253.1062085 75.26860352 252.36572266 74.47460938 C249.50282297 71.38345562 246.70307413 68.23193646 244 65 C243.4225 64.3503125 242.845 63.700625 242.25 63.03125 C241 61 241 61 241.05859375 59.140625 C242.39729711 56.09660242 244.18504324 53.49168289 246.0625 50.75 C246.79597656 49.67234375 247.52945313 48.5946875 248.28515625 47.484375 C248.85105469 46.66453125 249.41695312 45.8446875 250 45 C258.58663395 45.98535144 266.52588789 48.70916423 274.64916992 51.52368164 C275.52549072 51.82653076 276.40181152 52.12937988 277.3046875 52.44140625 C278.08827637 52.71670166 278.87186523 52.99199707 279.67919922 53.27563477 C282.1011912 54.03158366 284.50550516 54.54487475 287 55 C287.27585937 54.14148438 287.55171875 53.28296875 287.8359375 52.3984375 C288.97457764 49.07421963 290.25849731 45.86145373 291.625 42.625 C292.07101562 41.56539062 292.51703125 40.50578125 292.9765625 39.4140625 C293.31429688 38.61742187 293.65203125 37.82078125 294 37 C293.28457031 36.65743164 292.56914062 36.31486328 291.83203125 35.96191406 C288.55435107 34.39197734 285.27717224 32.82099673 282 31.25 C280.31197266 30.44175781 280.31197266 30.44175781 278.58984375 29.6171875 C272.70107839 26.79333511 266.82991034 23.94353316 261 21 C261.61977699 15.32671455 262.27945461 9.66142803 263 4 C266.35860306 2.88046565 269.37206734 2.58556081 272.8984375 2.24609375 C273.90639877 2.14833397 273.90639877 2.14833397 274.9347229 2.04859924 C276.3550831 1.91165102 277.77561102 1.77643289 279.19628906 1.64282227 C281.36047948 1.43886842 283.52399426 1.22865786 285.6875 1.01757812 C291.1442298 0.49456345 296.51086877 0 302 0 C302 46.53 302 93.06 302 141 C202.34 141 102.68 141 0 141 C0 94.47 0 47.94 0 0 Z " fill="#FDFEFD" transform="translate(0,81)"/>
<path d="M0 0 C14.85 0 29.7 0 45 0 C45.5878125 5.1975 45.5878125 5.1975 46.1875 10.5 C49.80419556 39.25718978 63.11518899 65.88313047 86.3034668 83.90136719 C97.16589785 92.0370976 108.93279009 98.23061252 122 102 C123.09828125 102.31839844 124.1965625 102.63679688 125.328125 102.96484375 C153.85718349 109.90520888 183.2206843 103.84472982 208.13720703 89.16015625 C212.846153 86.22740248 216.94651821 82.76828172 221 79 C221.48275391 78.56349121 221.96550781 78.12698242 222.46289062 77.67724609 C245.258463 56.937372 254.31799296 30.27612674 256 0 C271.18 0 286.36 0 302 0 C302 3.3 302 6.6 302 10 C289.0145469 11.7077643 276.09009913 13.39164603 263 14 C263.061875 15.7015625 263.061875 15.7015625 263.125 17.4375 C263.14183841 22.14383562 262.17621777 26.46316004 261 31 C261.763125 31.21785156 262.52625 31.43570313 263.3125 31.66015625 C268.41935027 33.51571731 273.16157282 35.97657583 278 38.4375 C278.97195313 38.92798828 279.94390625 39.41847656 280.9453125 39.92382812 C282.81070665 40.86542013 284.67533253 41.80853625 286.5390625 42.75341797 C289.35422859 44.17943365 292.17552537 45.59253376 295 47 C293.85480395 49.62527971 292.70887219 52.25023393 291.5625 54.875 C291.23701172 55.62136719 290.91152344 56.36773437 290.57617188 57.13671875 C290.26357422 57.85214844 289.95097656 58.56757813 289.62890625 59.3046875 C289.34088135 59.96452637 289.05285645 60.62436523 288.75610352 61.30419922 C288.20067688 62.54991875 287.60996982 63.78006037 287 65 C280.99141874 64.44881644 275.84766575 63.10377124 270.1875 61.0625 C263.520364 58.73925001 257.02939102 56.89802793 250 56 C248.84735447 57.74552064 247.70312673 59.49660196 246.5625 61.25 C245.92441406 62.22453125 245.28632813 63.1990625 244.62890625 64.203125 C242.6219108 67.41683156 242.6219108 67.41683156 242 71 C243.62749579 73.42453447 243.62749579 73.42453447 246 75.75 C246.83273438 76.62914062 247.66546875 77.50828125 248.5234375 78.4140625 C249.34070313 79.26742187 250.15796875 80.12078125 251 81 C252.21765315 82.36675354 253.42698932 83.7409968 254.625 85.125 C255.17542969 85.75664062 255.72585937 86.38828125 256.29296875 87.0390625 C256.85628906 87.68617188 257.41960937 88.33328125 258 89 C259.31213495 90.50031934 260.62462751 92.00032601 261.9375 93.5 C262.95833333 94.66666667 263.97916667 95.83333333 265 97 C263.38989473 101.07376031 260.46177729 103.76507069 257.375 106.75 C256.859375 107.25660156 256.34375 107.76320313 255.8125 108.28515625 C254.54616661 109.52803902 253.2736856 110.76465276 252 112 C248.30030797 110.71119914 245.89101467 109.25659021 243.0625 106.5625 C239.04792592 102.87965295 234.89871066 99.43636602 230.625 96.0625 C230.01793213 95.57789307 229.41086426 95.09328613 228.78540039 94.59399414 C226.20466713 92.56743483 224.13776422 91.04592141 221 90 C218.0309992 91.66435799 218.0309992 91.66435799 214.9375 93.9375 C209.18867925 98 209.18867925 98 207 98 C207.23944336 98.56525391 207.47888672 99.13050781 207.72558594 99.71289062 C210.67279646 106.85124564 213.00913476 114.1134442 215.25 121.5 C215.61351562 122.67820312 215.97703125 123.85640625 216.3515625 125.0703125 C219 133.7324953 219 133.7324953 219 136 C216.23113877 137.00577013 213.46015896 138.00480147 210.6875 139 C209.90181641 139.28617188 209.11613281 139.57234375 208.30664062 139.8671875 C207.54931641 140.13789063 206.79199219 140.40859375 206.01171875 140.6875 C204.96697388 141.06455078 204.96697388 141.06455078 203.90112305 141.44921875 C202 142 202 142 199 142 C193.72 131.44 188.44 120.88 183 110 C173.595 111.485 173.595 111.485 164 113 C164 115.64 164 118.28 164 121 C163.6850835 123.00298245 163.34893246 125.00266246 163 127 C162.59253876 130.95377398 162.26676689 134.91404131 161.9375 138.875 C161.84662109 139.94492188 161.75574219 141.01484375 161.66210938 142.1171875 C161.43924769 144.74460947 161.21933149 147.37228098 161 150 C154.4 150 147.8 150 141 150 C140.26615393 146.33076963 139.76247994 142.98951986 139.46484375 139.2890625 C139.37783203 138.20882812 139.29082031 137.12859375 139.20117188 136.015625 C139.0706543 134.33726562 139.0706543 134.33726562 138.9375 132.625 C138.80118164 130.95824219 138.80118164 130.95824219 138.66210938 129.2578125 C138.23175596 123.82176935 137.88213684 118.45313554 138 113 C136.82244141 112.81824219 136.82244141 112.81824219 135.62109375 112.6328125 C129.94948787 111.72813917 124.47507746 110.7420701 119 109 C118.74025391 109.68932617 118.48050781 110.37865234 118.21289062 111.08886719 C116.02803412 116.33287463 113.22985598 121.2809559 110.55029297 126.28515625 C109.49751462 128.25464954 108.45371941 130.22873683 107.41015625 132.203125 C106.74273164 133.45341562 106.07478134 134.7034258 105.40625 135.953125 C104.80103516 137.08911133 104.19582031 138.22509766 103.57226562 139.39550781 C102 142 102 142 100 143 C98.21240234 142.37915039 98.21240234 142.37915039 96.0859375 141.34765625 C95.32539062 140.98349609 94.56484375 140.61933594 93.78125 140.24414062 C92.9871875 139.85419922 92.193125 139.46425781 91.375 139.0625 C90.17230469 138.48338867 90.17230469 138.48338867 88.9453125 137.89257812 C86.96002154 136.93538427 84.97858263 135.97096525 83 135 C84.54512545 126.83925122 87.28043569 119.2239257 90.125 111.4375 C90.59816109 110.12973984 91.07082121 108.8217983 91.54296875 107.51367188 C92.6904139 104.34063479 93.84287028 101.16951538 95 98 C94.22567627 97.70109863 93.45135254 97.40219727 92.65356445 97.09423828 C89.88966767 95.95450276 87.64856088 94.56468359 85.1875 92.875 C84.39730469 92.33617187 83.60710937 91.79734375 82.79296875 91.2421875 C82.20128906 90.83226562 81.60960938 90.42234375 81 90 C75.72111907 92.8398613 71.18212695 96.06870863 66.5625 99.875 C65.25073118 100.94100455 63.93823739 102.00611764 62.625 103.0703125 C62.00238281 103.57594727 61.37976562 104.08158203 60.73828125 104.60253906 C57.55806442 107.159219 54.28787637 109.58441736 51 112 C47.21663952 110.45895157 45.02055175 108.14190393 42.3125 105.125 C41.52488281 104.26132813 40.73726562 103.39765625 39.92578125 102.5078125 C36.93293355 98.61043273 36.93293355 98.61043273 37 96 C38.84375 93.703125 38.84375 93.703125 41.5 91.25 C44.71106067 88.20016413 47.81510941 85.18443678 50.6875 81.8125 C53.93882475 78.01154655 57.41580961 74.48614262 61 71 C58.13582099 65.90812621 55.12113686 60.93795085 52 56 C43.15303892 57.79202836 34.66274929 60.5268556 26.06640625 63.25390625 C24.94363281 63.60582031 23.82085938 63.95773438 22.6640625 64.3203125 C21.64779785 64.64273926 20.6315332 64.96516602 19.58447266 65.29736328 C17 66 17 66 14 66 C12.96794141 63.2328864 11.94909171 60.46208746 10.9375 57.6875 C10.64294922 56.90181641 10.34839844 56.11613281 10.04492188 55.30664062 C9.77099609 54.54931641 9.49707031 53.79199219 9.21484375 53.01171875 C8.95823975 52.31522217 8.70163574 51.61872559 8.43725586 50.90112305 C8 49 8 49 9 46 C11.2569939 44.67584421 13.44761259 43.53295093 15.80859375 42.42578125 C16.49051285 42.09708542 17.17243195 41.76838959 17.87501526 41.42973328 C19.31778584 40.7366923 20.76292589 40.0485659 22.21020508 39.36499023 C24.43001134 38.3160387 26.64217693 37.25221575 28.85351562 36.18554688 C30.25478533 35.51474065 31.65646477 34.84478954 33.05859375 34.17578125 C33.72322128 33.85708572 34.38784882 33.5383902 35.07261658 33.21003723 C39.76650943 31 39.76650943 31 42 31 C41.7834375 30.35933594 41.566875 29.71867187 41.34375 29.05859375 C41.0653125 28.19363281 40.786875 27.32867187 40.5 26.4375 C40.2215625 25.59058594 39.943125 24.74367188 39.65625 23.87109375 C38.88924351 20.51544034 38.89821589 17.43097274 39 14 C38.31599121 13.9498877 37.63198242 13.89977539 36.92724609 13.84814453 C11.80611778 11.98528635 11.80611778 11.98528635 0 10 C0 6.7 0 3.4 0 0 Z " fill="#4CB85B" transform="translate(0,71)"/>
<path d="M0 0 C20.79 0 41.58 0 63 0 C56 16 56 16 53.0234375 22.05859375 C52.58128906 22.95900391 52.13914063 23.85941406 51.68359375 24.78710938 C50.79262949 26.59164444 49.88022091 28.38571362 48.94921875 30.16992188 C46.89771155 34.43003368 45.39170313 37.63049124 46.80859375 42.29296875 C47.49369014 43.88231491 48.23102592 45.44949778 49 47 C49.48952148 48.05082764 49.97904297 49.10165527 50.48339844 50.18432617 C52.47417313 54.39311549 54.5386489 58.56332077 56.6105957 62.73242188 C57.49905765 64.52499521 58.38049793 66.32104339 59.26171875 68.1171875 C59.78725342 69.17534668 60.31278809 70.23350586 60.85424805 71.32373047 C62 74 62 74 62 77 C53.42 77 44.84 77 36 77 C31.05 66.11 31.05 66.11 26 55 C25.67 62.59 25.34 70.18 25 78 C22.36 78 19.72 78 17 78 C19.38659757 95.77480879 27.01271553 111.50908374 41 123 C56.84907466 134.077361 73.87901914 137.86151348 93 136 C103.62780664 134.00348191 113.41178474 129.54271129 122 123 C122.70125 122.49082031 123.4025 121.98164062 124.125 121.45703125 C137.99529678 110.48540977 143.94033507 93.81571943 147 77 C144.03 77 141.06 77 138 77 C138 59.84 138 42.68 138 25 C133.05 25 128.1 25 123 25 C123 16.75 123 8.5 123 0 C140.16 0 157.32 0 175 0 C175 7.92 175 15.84 175 24 C170.71 24 166.42 24 162 24 C162 41.49 162 58.98 162 77 C159.69 77 157.38 77 155 77 C154.92523438 77.7528125 154.85046875 78.505625 154.7734375 79.28125 C152.28497768 99.38410192 143.37614894 115.66978583 128 129 C109.14715311 143.22856369 90.0171509 145.71071093 67 144 C61.64773697 143.16481615 56.86564015 141.36420207 52 139 C50.52273437 138.31357422 50.52273437 138.31357422 49.015625 137.61328125 C30.20860248 128.13184034 17.63404597 112.17563877 10.93359375 92.42578125 C9.62748647 87.63307797 9.11126077 82.95616177 9 78 C6.03 78 3.06 78 0 78 C0 52.26 0 26.52 0 0 Z " fill="#4EB95D" transform="translate(69,0)"/>
<path d="M0 0 C2.97 0 5.94 0 9 0 C9.07476562 1.09054688 9.14953125 2.18109375 9.2265625 3.3046875 C11.31313435 28.77397647 21.5310882 50.06933745 41 67 C58.69030863 80.69802885 80.71804383 87.26111475 103.03662109 84.77294922 C125.18106591 81.76410661 145.46609501 71.86853911 160.03125 54.6171875 C172.6774507 37.8057699 177.74978201 20.84415161 179 0 C181.64 0 184.28 0 187 0 C187.78871553 22.87275027 179.30346298 44.99031902 164 62 C163.57090332 62.47824219 163.14180664 62.95648438 162.69970703 63.44921875 C151.64127589 75.59670824 139.22397318 83.06984442 124 89 C123.18917969 89.34933594 122.37835938 89.69867188 121.54296875 90.05859375 C100.05073177 98.01501328 75.47414875 94.77119729 54.90039062 85.88427734 C29.36806009 74.00374019 13.12658809 52.85338467 3.6875 27 C0.94675524 18.31901446 -0.16674368 9.08753074 0 0 Z " fill="#4EB95E" transform="translate(57,71)"/>
<path d="M0 0 C8.25 0 16.5 0 25 0 C25 17.16 25 34.32 25 52 C16.75 52 8.5 52 0 52 C0 34.84 0 17.68 0 0 Z " fill="#58BD66" transform="translate(164,26)"/>
<path d="M0 0 C8.25 0 16.5 0 25 0 C25 17.16 25 34.32 25 52 C16.75 52 8.5 52 0 52 C0 34.84 0 17.68 0 0 Z " fill="#53BB62" transform="translate(136,26)"/>
<path d="M0 0 C12.87 0 25.74 0 39 0 C39 3.3 39 6.6 39 10 C34.71 10 30.42 10 26 10 C26 27.82 26 45.64 26 64 C22.04 64 18.08 64 14 64 C14 46.18 14 28.36 14 10 C9.38 10 4.76 10 0 10 C0 6.7 0 3.4 0 0 Z " fill="#FCFDFC" transform="translate(199,7)"/>
<path d="M0 0 C4.29 0 8.58 0 13 0 C12.13639162 4.31804188 11.15560413 7.06185682 9.2421875 10.9296875 C8.69949219 12.05503906 8.15679687 13.18039063 7.59765625 14.33984375 C6.45078694 16.69339641 5.294544 19.04240479 4.12890625 21.38671875 C3.58878906 22.51464844 3.04867187 23.64257812 2.4921875 24.8046875 C1.99058105 25.82546387 1.48897461 26.84624023 0.97216797 27.89794922 C-0.96408539 34.07626042 1.17485134 38.97364335 3.94140625 44.5546875 C4.3721067 45.43521286 4.3721067 45.43521286 4.81150818 46.33352661 C5.71941259 48.1853324 6.64036438 50.0302461 7.5625 51.875 C8.77537145 54.32914738 9.98323988 56.78571634 11.19140625 59.2421875 C11.72967041 60.3235498 12.26793457 61.40491211 12.82250977 62.51904297 C14 65 14 65 14 66 C9.71 66 5.42 66 1 66 C0.5153125 65.030625 0.030625 64.06125 -0.46875 63.0625 C-0.94948975 62.102229 -0.94948975 62.102229 -1.43994141 61.12255859 C-2.15315334 59.69449214 -2.86372059 58.26510213 -3.57177734 56.83447266 C-5.44949773 53.05006749 -7.3649746 49.29776277 -9.3828125 45.5859375 C-9.94645508 44.52632812 -9.94645508 44.52632812 -10.52148438 43.4453125 C-11.24373602 42.09029172 -11.98152247 40.74341011 -12.73632812 39.40625 C-14.35584778 36.32692664 -15.16402796 34.62892004 -14.26953125 31.19921875 C-12.93575965 27.83811433 -11.49347543 24.5644867 -9.9609375 21.2890625 C-9.67521881 20.67606293 -9.38950012 20.06306335 -9.09512329 19.43148804 C-8.19146932 17.49454784 -7.28331831 15.55975656 -6.375 13.625 C-5.75751275 12.30352544 -5.14032233 10.98191214 -4.5234375 9.66015625 C-3.01905252 6.43849336 -1.51062991 3.21874023 0 0 Z " fill="#F9FCFA" transform="translate(109,6)"/>
<path d="M0 0 C3.96 0 7.92 0 12 0 C12 21.12 12 42.24 12 64 C8.04 64 4.08 64 0 64 C0 42.88 0 21.76 0 0 Z " fill="#FBFDFB" transform="translate(76,7)"/>
<path d="M0 0 C3.96 0 7.92 0 12 0 C13 1 13 1 13.11352539 4.60180664 C13.11336625 6.20459856 13.10767063 7.8073956 13.09765625 9.41015625 C13.0962413 10.25219101 13.09482635 11.09422577 13.09336853 11.96177673 C13.08775263 14.66205335 13.07519748 17.36224828 13.0625 20.0625 C13.05748705 21.88867068 13.05292379 23.71484266 13.04882812 25.54101562 C13.03777804 30.02737542 13.02050279 34.51367384 13 39 C8.71 39 4.42 39 0 39 C0 26.13 0 13.26 0 0 Z " fill="#EEF8F0" transform="translate(142,33)"/>
<path d="M0 0 C3.75212276 2.01502889 5.63644095 3.45466142 8 7 C8.66100598 11.04257341 8.91928345 15.20172043 7.01953125 18.91796875 C3.83125067 22.89105685 1.08570352 24.72795172 -3.875 25.375 C-8.80094062 24.78388713 -11.74139198 22.51032962 -14.875 18.75 C-16.37988878 15.07138298 -16.92618982 11.85790879 -16 8 C-11.91815399 1.49650835 -7.814983 -1.07492331 0 0 Z " fill="#4BB85B" transform="translate(180,0)"/>
<path d="M0 0 C3.75212276 2.01502889 5.63644095 3.45466142 8 7 C8.66100598 11.04257341 8.91928345 15.20172043 7.01953125 18.91796875 C3.83125067 22.89105685 1.08570352 24.72795172 -3.875 25.375 C-8.80094062 24.78388713 -11.74139198 22.51032962 -14.875 18.75 C-16.37988878 15.07138298 -16.92618982 11.85790879 -16 8 C-11.91815399 1.49650835 -7.814983 -1.07492331 0 0 Z " fill="#4BB85B" transform="translate(152,0)"/>
<path d="M0 0 C3.63 0 7.26 0 11 0 C11 12.21 11 24.42 11 37 C7.37 37 3.74 37 0 37 C0 24.79 0 12.58 0 0 Z " fill="#FEFEFE" transform="translate(171,34)"/>
<path d="M0 0 C3.96 0 7.92 0 12 0 C10.56863563 3.25282805 9.13021624 6.50221089 7.6875 9.75 C7.28337891 10.67039062 6.87925781 11.59078125 6.46289062 12.5390625 C6.06650391 13.42851562 5.67011719 14.31796875 5.26171875 15.234375 C4.90037842 16.05131836 4.53903809 16.86826172 4.16674805 17.70996094 C3 20 3 20 0 24 C0 16.08 0 8.16 0 0 Z " fill="#FCFDFC" transform="translate(94,0)"/>
</svg>
